Coordinates
version=1
nRows=18
nColumns=22
inDegrees=yes

Units are S.I. units (second, meters, Newtons, ...)
If the header above contains a line with 'inDegrees', this indicates whether rotational values are in degrees (yes) or radians (no).

endheader
time	pelvis_tilt	pelvis_list	pelvis_rotation	pelvis_tx	pelvis_ty	pelvis_tz	hip_flexion_r	hip_adduction_r	hip_rotation_r	knee_angle_r	ankle_angle_r	subtalar_angle_r	hip_flexion_l	hip_adduction_l	hip_rotation_l	knee_angle_l	ankle_angle_l	subtalar_angle_l	lumbar_extension	lumbar_bending	lumbar_rotation
      0.01000000	      0.32375899	     -3.38386439	     -6.02911684	     -1.49654998	      1.02652257	     -0.23112415	      1.53423697	      5.43279972	     -8.80921289	    -11.26626231	      9.03640217	     -2.86483875	      1.96565959	     -1.80946811	     -7.17891871	    -11.43411896	     10.12676153	     -5.10271910	    -10.82399249	      3.56347293	      3.21185797
      0.02000000	      0.31799135	     -3.38401390	     -6.03320491	     -1.49658811	      1.02651223	     -0.23112549	      1.53945440	      5.43414178	     -8.81046802	    -11.25928651	      9.03530537	     -2.86479137	      1.97098201	     -1.80964118	     -7.17888535	    -11.42936959	     10.12817625	     -5.10346413	    -10.83961205	      3.56294099	      3.20988973
      0.03000000	      0.31082287	     -3.38404840	     -6.03697049	     -1.49662859	      1.02650104	     -0.23112369	      1.54564784	      5.43556297	     -8.81175107	    -11.25140032	      9.03399160	     -2.86476101	      1.97728924	     -1.81025049	     -7.17919202	    -11.42340530	     10.12982090	     -5.10415519	    -10.85728083	      3.56205577	      3.20809160
      0.04000000	      0.30221014	     -3.38410351	     -6.04126436	     -1.49667175	      1.02648968	     -0.23111556	      1.55297189	      5.43767565	     -8.81368658	    -11.24233501	      9.03228861	     -2.86473439	      1.98430656	     -1.81126861	     -7.18007199	    -11.41604585	     10.13154726	     -5.10480201	    -10.87678460	      3.56081754	      3.20587409
      0.05000000	      0.29226210	     -3.38421680	     -6.04624803	     -1.49671731	      1.02647880	     -0.23110312	      1.56125390	      5.43978737	     -8.81651943	    -11.23233786	      9.03045640	     -2.86470684	      1.99207185	     -1.81302754	     -7.18174383	    -11.40695289	     10.13294490	     -5.10533070	    -10.89763414	      3.55971335	      3.20306153
      0.06000000	      0.27758825	     -3.39065548	     -6.05386541	     -1.49674522	      1.02646781	     -0.23107883	      1.57204120	      5.44967678	     -8.82457012	    -11.21981549	      9.00743573	     -2.86491189	      1.99683489	     -1.82267530	     -7.19475382	    -11.38582818	     10.13365302	     -5.10913455	    -10.91099870	      3.56745241	      3.18831974
      0.07000000	      0.26654141	     -3.38992368	     -6.05872048	     -1.49679381	      1.02645844	     -0.23106971	      1.58144370	      5.45074082	     -8.82764008	    -11.20894594	      9.00651975	     -2.86492596	      2.00581642	     -1.82328254	     -7.19654168	    -11.37646738	     10.13379589	     -5.10951850	    -10.93352077	      3.56869276	      3.18670627
      0.08000000	      0.25485238	     -3.38929028	     -6.06515736	     -1.49684034	      1.02645077	     -0.23105438	      1.59155867	      5.45192659	     -8.83105564	    -11.19845787	      9.00511366	     -2.86486059	      2.01413943	     -1.82468757	     -7.19944946	    -11.36538570	     10.13342007	     -5.10987285	    -10.95526333	      3.57047630	      3.18323325
      0.09000000	      0.23497307	     -3.39492894	     -6.07845074	     -1.49685986	      1.02643608	     -0.23102975	      1.61100611	      5.46022758	     -8.83616108	    -11.19289193	      8.98498493	     -2.86399650	      2.01824330	     -1.83313969	     -7.22064137	    -11.33361837	     10.12277449	     -5.11234230	    -10.96230093	      3.58501207	      3.16377446
      0.10000000	      0.22332301	     -3.39303004	     -6.08486885	     -1.49690622	      1.02642680	     -0.23101436	      1.62127542	      5.46007463	     -8.83842959	    -11.18248755	      8.98396811	     -2.86377549	      2.02733905	     -1.83322288	     -7.22298726	    -11.32404674	     10.12227812	     -5.11253001	    -10.98429391	      3.58822737	      3.16221517
      0.11000000	      0.21116027	     -3.39124765	     -6.09336227	     -1.49694870	      1.02641692	     -0.23099621	      1.63241788	      5.46012590	     -8.84051442	    -11.17322527	      8.98220270	     -2.86341115	      2.03550536	     -1.83309289	     -7.22692108	    -11.31281886	     10.12131056	     -5.11252042	    -11.00489384	      3.59346090	      3.15881046
      0.12000000	      0.18806831	     -3.39514503	     -6.11439264	     -1.49696516	      1.02639544	     -0.23096715	      1.65976128	      5.46586110	     -8.83550135	    -11.17695349	      8.96266725	     -2.86036371	      2.04120452	     -1.84005507	     -7.25515002	    -11.27979395	     10.10950836	     -5.11083433	    -11.00796930	      3.61194167	      3.14408299
      0.13000000	      0.17623575	     -3.39208772	     -6.12083441	     -1.49700103	      1.02638244	     -0.23094872	      1.67010363	      5.46526313	     -8.83633547	    -11.16746523	      8.96212626	     -2.85990055	      2.05062011	     -1.83896392	     -7.25817138	    -11.27158407	     10.10929433	     -5.11022882	    -11.02847397	      3.61630589	      3.14462533
      0.14000000	      0.14014595	     -3.39205982	     -6.15243576	     -1.49702957	      1.02633763	     -0.23089173	      1.71555700	      5.47043517	     -8.80580131	    -11.17744834	      8.94070689	     -2.85314682	      2.07452523	     -1.84551631	     -7.30243127	    -11.24681864	     10.09948320	     -5.09637795	    -11.01779464	      3.62636381	      3.15684470
      0.15000000	      0.12981009	     -3.38758937	     -6.15881850	     -1.49704683	      1.02632254	     -0.23089238	      1.72351994	      5.46647089	     -8.80608362	    -11.16823028	      8.94215079	     -2.85304698	      2.08299287	     -1.84126031	     -7.30371453	    -11.24186436	     10.10066785	     -5.09543191	    -11.03632404	      3.63461872	      3.15770800
      0.16000000	      0.11959681	     -3.38335463	     -6.16427178	     -1.49706136	      1.02630728	     -0.23089061	      1.73205247	      5.46324214	     -8.80496923	    -11.16088295	      8.94328771	     -2.85301515	      2.09062680	     -1.83754534	     -7.30624896	    -11.23510269	     10.10204708	     -5.09429520	    -11.05334464	      3.64167468	      3.15745660
      0.17000000	      0.07194600	     -3.36255722	     -6.20812069	     -1.49707934	      1.02623125	     -0.23083088	      1.79311860	      5.44841219	     -8.73274046	    -11.17667177	      8.95538950	     -2.85440758	      2.13326518	     -1.82217864	     -7.35583030	    -11.22348780	     10.10631803	     -5.06007273	    -11.02194565	      3.62909346	      3.18929934
      0.18000000	      0.06307869	     -3.35932568	     -6.21175630	     -1.49708532	      1.02621555	     -0.23082604	      1.80049684	      5.44652593	     -8.73354108	    -11.17085992	      8.95616337	     -2.85463942	      2.13935259	     -1.81952627	     -7.35804979	    -11.21683627	     10.10679877	     -5.05938766	    -11.03800840	      3.63612046	      3.18704546
